<svg xmlns="http://www.w3.org/2000/svg" viewBox="0 0 64 64" fill="none">
  <!-- Background circle -->
  <circle cx="32" cy="32" r="32" fill="#2d7a4f"/>
  <!-- Stylised leaf / sprout -->
  <path d="M32 48 C32 48 20 36 20 26 C20 19 26 14 32 14 C38 14 44 19 44 26 C44 36 32 48 32 48Z"
        fill="#4aad72" opacity="0.9"/>
  <path d="M32 48 C32 48 24 38 24 28 C24 22 28 17 32 14"
        fill="#2d7a4f"/>
  <!-- Central stem -->
  <line x1="32" y1="48" x2="32" y2="38" stroke="#fff" stroke-width="2" stroke-linecap="round"/>
  <!-- AI spark / star -->
  <path d="M32 10 L33.5 14 L37.5 14 L34.5 17 L35.5 21 L32 18.5 L28.5 21 L29.5 17 L26.5 14 L30.5 14Z"
        fill="#f5a623"/>
</svg>
